# File created by Blade
# Date/Time:  Tue Jan 27 17:21:46 2015
#---------------------------------------------------------
:version 1.10
:name HOM
:units
  mass 1.0
  length 1.000000
  angle deg
:documentation
     Acclaim Skeleton File
:root
   axis xyz
   order TX TY TZ RX RY RZ
   position 0.000000 0.000000 0.000000
   orientation 0 0 0
:bonedata
   begin
      id 1
      name Spine_dum
      direction 0.000000 1.000000 0.000000
      length 7.539951
      axis 0.0 0.0 0.0 xyz
   end
   begin
      id 2
      name LeftUpLeg_dum
      direction 1.000000 0.000000 0.000000
      length 3.345476
      axis 0.0 0.0 0.0 xyz
   end
   begin
      id 3
      name RightUpLeg_dum
      direction -1.000000 0.000000 0.000000
      length 3.345476
      axis 0.0 0.0 0.0 xyz
   end
   begin
      id 4
      name Spine
      direction 0.000000 1.000000 0.000000
      length 0.000000
      axis 0.0 0.0 0.0 xyz
      dof rx ry rz
   end
   begin
      id 5
      name Spine_dum1
      direction 0.000000 1.000000 0.000000
      length 15.093809
      axis 0.0 0.0 0.0 xyz
   end
   begin
      id 6
      name Spine_dum2
      direction 0.000000 1.000000 0.000000
      length 9.738928
      axis 0.0 0.0 0.0 xyz
   end
   begin
      id 7
      name Spine_dum3
      direction 0.000000 1.000000 0.000000
      length 9.738928
      axis 0.0 0.0 0.0 xyz
   end
   begin
      id 8
      name Head
      direction 0.000000 1.000000 0.000000
      length 4.527550
      axis 0.0 0.0 0.0 xyz
      dof rx ry rz
   end
   begin
      id 9
      name LeftShoulder
      direction 1.000000 0.000000 0.000000
      length 7.084015
      axis 0.0 0.0 -90.0 xyz
      dof rx ry rz
   end
   begin
      id 10
      name LeftArm
      direction 1.000000 0.000000 0.000000
      length 10.259319
      axis 0.0 0.0 -90.0 xyz
      dof rx ry rz
   end
   begin
      id 11
      name LeftForeArm
      direction 1.000000 0.000000 0.000000
      length 9.896984
      axis 0.0 0.0 -90.0 xyz
      dof ry rz rx
   end
   begin
      id 12
      name LeftHand
      direction 0.000000 0.000000 0.000000
      length 0.000000
      axis 0.0 0.0 -90.0 xyz
      dof rx ry rz
   end
   begin
      id 13
      name LeftHand_dum1
      direction 0.000000 0.000000 0.000000
      length 0.000000
      axis 0.0 0.0 -90.0 xyz
   end
   begin
      id 14
      name LeftHand_dum2
      direction 1.000000 0.000000 0.000000
      length 3.937000
      axis 0.0 0.0 -90.0 xyz
   end
   begin
      id 15
      name LeftHandThumb1
      direction 0.000000 0.000000 1.000000
      length 3.937000
      axis 0.0 0.0 -90.0 xyz
      dof rx rz ry
   end
   begin
      id 16
      name RightShoulder
      direction -1.000000 0.000000 0.000000
      length 7.084015
      axis 0.0 0.0 90.0 xyz
      dof rx ry rz
   end
   begin
      id 17
      name RightArm
      direction -1.000000 0.000000 0.000000
      length 10.259319
      axis 0.0 0.0 90.0 xyz
      dof rx ry rz
   end
   begin
      id 18
      name RightForeArm
      direction -1.000000 0.000000 0.000000
      length 9.896984
      axis 0.0 0.0 90.0 xyz
      dof ry rz rx
   end
   begin
      id 19
      name RightHand
      direction 0.000000 0.000000 0.000000
      length 0.000000
      axis 0.0 0.0 90.0 xyz
      dof rx ry rz
   end
   begin
      id 20
      name RightHand_dum1
      direction 0.000000 0.000000 0.000000
      length 0.000000
      axis 0.0 0.0 90.0 xyz
   end
   begin
      id 21
      name RightHand_dum2
      direction -1.000000 0.000000 0.000000
      length 3.937000
      axis 0.0 0.0 90.0 xyz
   end
   begin
      id 22
      name RightHandThumb1
      direction 0.000000 0.000000 1.000000
      length 3.937000
      axis 0.0 0.0 90.0 xyz
      dof rx rz ry
   end
   begin
      id 23
      name LeftUpLeg
      direction 0.000000 -1.000000 0.000000
      length 19.114733
      axis 0.0 0.0 0.0 xyz
      dof rx ry rz
   end
   begin
      id 24
      name LeftLeg
      direction 0.000000 -1.000000 0.000000
      length 16.045604
      axis 0.0 0.0 0.0 xyz
      dof rx ry rz
   end
   begin
      id 25
      name LeftFoot
      direction 0.000000 -0.258819 0.965926
      length 5.543155
      axis 15.0 0.0 0.0 xyz
      dof rx ry rz
   end
   begin
      id 26
      name LeftToeBase
      direction 0.000000 0.000000 1.000000
      length 2.952750
      axis 0.0 0.0 0.0 xyz
      dof rx ry rz
   end
   begin
      id 27
      name RightUpLeg
      direction 0.000000 -1.000000 0.000000
      length 19.114733
      axis 0.0 0.0 0.0 xyz
      dof rx ry rz
   end
   begin
      id 28
      name RightLeg
      direction 0.000000 -1.000000 0.000000
      length 16.045604
      axis 0.0 0.0 0.0 xyz
      dof rx ry rz
   end
   begin
      id 29
      name RightFoot
      direction 0.000000 -0.258819 0.965926
      length 5.543155
      axis 15.0 0.0 0.0 xyz
      dof rx ry rz
   end
   begin
      id 30
      name RightToeBase
      direction 0.000000 0.000000 1.000000
      length 2.952750
      axis 0.0 0.0 0.0 xyz
      dof rx ry rz
   end
:hierarchy
   begin
      root Spine_dum LeftUpLeg_dum RightUpLeg_dum
      Spine_dum Spine
      LeftUpLeg_dum LeftUpLeg
      RightUpLeg_dum RightUpLeg
      Spine Spine_dum1 Spine_dum2 Spine_dum3
      Spine_dum1 Head
      Spine_dum2 LeftShoulder
      Spine_dum3 RightShoulder
      LeftShoulder LeftArm
      LeftArm LeftForeArm
      LeftForeArm LeftHand
      LeftHand LeftHand_dum1 LeftHand_dum2
      LeftHand_dum1 LeftHandThumb1
      RightShoulder RightArm
      RightArm RightForeArm
      RightForeArm RightHand
      RightHand RightHand_dum1 RightHand_dum2
      RightHand_dum1 RightHandThumb1
      LeftUpLeg LeftLeg
      LeftLeg LeftFoot
      LeftFoot LeftToeBase
      RightUpLeg RightLeg
      RightLeg RightFoot
      RightFoot RightToeBase
   end

# File created by Blade
# Date/Time:  Tue Jan 27 17:21:37 2015
# Frame Rate: 120.000 fps
#------------------------------------------------------
:FULLY-SPECIFIED
:DEGREES
144
root -2.628738 36.641798 -1.329476 4.760992 -42.456967 -1.526234
Spine 1.954445 18.062129 -3.410537
Head 7.324739 3.656581 2.321661
LeftShoulder -7.467112 -8.541759 12.587457
LeftArm -22.009353 -31.768990 -29.474432
LeftForeArm 4.378656 -0.000000 73.850572
LeftHand -17.413071 -0.000000 38.967452
LeftHandThumb1 -26.253704 0.000000 33.147579
RightShoulder -2.825817 -16.577789 0.514555
RightArm 40.209366 -26.921383 44.678959
RightForeArm 171.472280 0.000000 35.073224
RightHand 0.177085 -0.000000 1.104123
RightHandThumb1 -24.326973 -0.000000 -32.862282
LeftUpLeg -56.073938 2.271107 9.067614
LeftLeg 118.090116 -0.000000 -0.000000
LeftFoot -9.521736 -10.048961 -17.573737
LeftToeBase 11.198090 -0.000000 -0.000000
RightUpLeg -9.911543 -8.155646 8.297498
RightLeg 16.321271 -0.000000 -0.000000
RightFoot -14.819637 1.256896 -5.410633
RightToeBase 4.112705 -0.000000 -0.000000
145
root -2.626979 36.653294 -1.328175 4.832799 -42.785623 -1.327270
Spine 1.600759 18.200830 -3.822441
Head 7.443866 3.646486 2.503206
LeftShoulder -7.410098 -8.511927 12.659543
LeftArm -22.050191 -31.734804 -29.378794
LeftForeArm 4.447555 -0.000000 73.841122
LeftHand -17.391310 -0.000000 38.870707
LeftHandThumb1 -26.253704 0.000000 33.147579
RightShoulder -2.810599 -16.663378 0.666086
RightArm 40.403808 -27.133191 44.579005
RightForeArm 171.257882 -0.000000 35.188202
RightHand 0.214096 -0.000000 1.093844
RightHandThumb1 -24.326973 -0.000000 -32.862282
LeftUpLeg -56.815777 2.263738 8.933446
LeftLeg 118.791883 -0.000000 -0.000000
LeftFoot -9.490562 -10.198683 -17.445546
LeftToeBase 11.356068 -0.000000 -0.000000
RightUpLeg -10.084278 -7.776114 8.139596
RightLeg 16.276487 -0.000000 -0.000000
RightFoot -14.761620 1.273664 -5.353397
RightToeBase 4.141746 -0.000000 -0.000000
146
root -2.622532 36.663222 -1.320929 4.873268 -43.069375 -1.129273
Spine 1.298568 18.278042 -4.179252
Head 7.512570 3.660381 2.624551
LeftShoulder -7.437273 -8.502274 12.734167
LeftArm -21.958855 -31.686807 -29.393006
LeftForeArm 4.649589 -0.000000 73.750267
LeftHand -17.487302 -0.000000 39.094197
LeftHandThumb1 -26.253704 0.000000 33.147579
RightShoulder -2.826694 -16.685071 0.793426
RightArm 40.598154 -27.405207 44.455141
RightForeArm 171.154080 0.000000 35.263585
RightHand 0.266210 -0.000000 0.992154
RightHandThumb1 -24.326973 -0.000000 -32.862282
LeftUpLeg -57.501474 2.213943 8.783754
LeftLeg 119.439991 -0.000000 -0.000000
LeftFoot -9.433828 -10.333728 -17.327407
LeftToeBase 11.308444 -0.000000 -0.000000
RightUpLeg -10.354890 -7.759559 8.001324
RightLeg 16.498299 -0.000000 -0.000000
RightFoot -14.785503 1.495490 -5.440665
RightToeBase 4.090378 -0.000000 -0.000000
147
root -2.619674 36.672887 -1.312837 4.919522 -43.317232 -0.939279
Spine 0.992842 18.333854 -4.526705
Head 7.590858 3.650630 2.763164
LeftShoulder -7.442045 -8.482806 12.760368
LeftArm -21.914630 -31.583597 -29.318563
LeftForeArm 4.696820 -0.000000 73.730500
LeftHand -17.559675 -0.000000 39.129901
LeftHandThumb1 -26.253704 0.000000 33.147579
RightShoulder -2.844235 -16.738724 0.940183
RightArm 40.765653 -27.660200 44.302096
RightForeArm 171.000351 -0.000000 35.370247
RightHand 0.212680 -0.000000 0.962958
RightHandThumb1 -24.326973 -0.000000 -32.862282
LeftUpLeg -58.164318 2.143089 8.653070
LeftLeg 120.032956 -0.000000 -0.000000
LeftFoot -9.394866 -10.490623 -17.166374
LeftToeBase 11.213167 -0.000000 -0.000000
RightUpLeg -10.560524 -7.597884 7.856584
RightLeg 16.586514 -0.000000 -0.000000
RightFoot -14.778310 1.596355 -5.473583
RightToeBase 4.098567 -0.000000 -0.000000
148
root -2.619653 36.682120 -1.302487 4.887921 -43.549950 -0.742725
Spine 0.790814 18.372528 -4.840248
Head 7.631841 3.642003 2.856759
LeftShoulder -7.396978 -8.443092 12.774427
LeftArm -21.909483 -31.584916 -29.224515
LeftForeArm 4.764040 -0.000000 73.669615
LeftHand -17.572010 -0.000000 39.163002
LeftHandThumb1 -26.253704 0.000000 33.147579
RightShoulder -2.835004 -16.778955 1.071401
RightArm 40.889209 -27.858190 44.204737
RightForeArm 170.850652 -0.000000 35.482199
RightHand 0.206656 -0.000000 0.875880
RightHandThumb1 -24.326973 -0.000000 -32.862282
LeftUpLeg -58.717812 2.038014 8.517302
LeftLeg 120.581109 -0.000000 -0.000000
LeftFoot -9.420258 -10.651647 -17.006298
LeftToeBase 11.246086 -0.000000 -0.000000
RightUpLeg -10.683412 -7.459606 7.698019
RightLeg 16.662837 -0.000000 -0.000000
RightFoot -14.774321 1.709266 -5.455610
RightToeBase 4.068218 -0.000000 -0.000000
